PathFileType	4	(X/Y/Z)	C:/Users/Carlo/Dropbox/Carlos/SARAH/CongressoMarcha2025/WorkshopOpenSim/C3D/Caso01/Walking 01.c3d.trc
DataRate	CameraRate	NumFrames	NumMarkers	Units	OrigDataRate	OrigDataStartFrame	OrigNumFrames
100.000000	100.000000	4	85	mm	100.000000	281	375
Frame#	Time	PELO			PELA			PELL			PELP			LFEO			LFEA			LFEL			LFEP			LTIO			LTIA			LTIL			LTIP			LFOO			LFOA			LFOL			LFOP			LTOO			LTOA			LTOL			LTOP			RFEO			RFEA			RFEL			RFEP			RTIO			RTIA			RTIL			RTIP			RFOO			RFOA			RFOL			RFOP			RTOO			RTOA			RTOL			RTOP			LASI			RASI			RPSI			LTHI			LKNE			LTIB			LANK			LHEE			LTOE			RTHI			RKNE			RTIB			RANK			RHEE			RTOE			LPSI			LHipAngles			LKneeAngles			LAbsAnkleAngle			LAnkleAngles			RHipAngles			RKneeAngles			RAnkleAngles			RAbsAnkleAngle			LPelvisAngles			RPelvisAngles			LFootProgressAngles			RFootProgressAngles			LHipPower			LKneePower			LAnklePower			RHipPower			RKneePower			RAnklePower			LGroundReactionForce			LNormalisedGRF			LAnkleForce			RAnkleForce			RKneeForce			LKneeForce			RHipForce			LHipForce			LGroundReactionMoment			LAnkleMoment			RAnkleMoment			RKneeMoment			LKneeMoment			RHipMoment			LHipMoment			
		X1	Y1	Z1	X2	Y2	Z2	X3	Y3	Z3	X4	Y4	Z4	X5	Y5	Z5	X6	Y6	Z6	X7	Y7	Z7	X8	Y8	Z8	X9	Y9	Z9	X10	Y10	Z10	X11	Y11	Z11	X12	Y12	Z12	X13	Y13	Z13	X14	Y14	Z14	X15	Y15	Z15	X16	Y16	Z16	X17	Y17	Z17	X18	Y18	Z18	X19	Y19	Z19	X20	Y20	Z20	X21	Y21	Z21	X22	Y22	Z22	X23	Y23	Z23	X24	Y24	Z24	X25	Y25	Z25	X26	Y26	Z26	X27	Y27	Z27	X28	Y28	Z28	X29	Y29	Z29	X30	Y30	Z30	X31	Y31	Z31	X32	Y32	Z32	X33	Y33	Z33	X34	Y34	Z34	X35	Y35	Z35	X36	Y36	Z36	X37	Y37	Z37	X38	Y38	Z38	X39	Y39	Z39	X40	Y40	Z40	X41	Y41	Z41	X42	Y42	Z42	X43	Y43	Z43	X44	Y44	Z44	X45	Y45	Z45	X46	Y46	Z46	X47	Y47	Z47	X48	Y48	Z48	X49	Y49	Z49	X50	Y50	Z50	X51	Y51	Z51	X52	Y52	Z52	X53	Y53	Z53	X54	Y54	Z54	X55	Y55	Z55	X56	Y56	Z56	X57	Y57	Z57	X58	Y58	Z58	X59	Y59	Z59	X60	Y60	Z60	X61	Y61	Z61	X62	Y62	Z62	X63	Y63	Z63	X64	Y64	Z64	X65	Y65	Z65	X66	Y66	Z66	X67	Y67	Z67	X68	Y68	Z68	X69	Y69	Z69	X70	Y70	Z70	X71	Y71	Z71	X72	Y72	Z72	X73	Y73	Z73	X74	Y74	Z74	X75	Y75	Z75	X76	Y76	Z76	X77	Y77	Z77	X78	Y78	Z78	X79	Y79	Z79	X80	Y80	Z80	X81	Y81	Z81	X82	Y82	Z82	X83	Y83	Z83	X84	Y84	Z84	X85	Y85	Z85	

282	2.81	255.8454895019532	905.2288208007817	1772.170654296876	248.5888671875001	900.2548217773442	1900.796630859376	384.4024658203127	911.4716186523442	1779.664794921876	249.3281250000001	1033.907958984375	1776.779052734376	324.3630371093751	521.1699218750002	1917.876831054688	280.3884887695314	661.840759277344	2303.042968750001	734.3913574218752	540.2637939453127	1957.716430664063	320.1195068359376	908.3676757812505	1775.979492187501	306.2199707031251	83.85650634765628	1878.293212890626	206.6017456054689	51.26216125488284	2284.049804687501	712.9157714843752	58.13287353515628	1976.075683593751	323.5208435058595	500.8702392578127	1916.039428710938	323.7323303222657	79.44422912597659	2033.161865234376	326.0147094726564	296.7446899414064	2019.164550781251	541.427673339844	76.8510665893555	2028.401367187501	318.8152465820314	65.5011901855469	1815.901489257813	325.3713378906251	84.09189605712893	2105.582275390626	326.1320190429689	156.5253906250001	2100.916503906251	397.936462402344	83.22762298583987	2103.995605468751	323.7324218750001	79.44423675537112	2033.162231445313	148.4709777832032	464.4467468261721	1752.930664062501	134.2492980957032	450.348083496094	2192.505859375001	586.1551513671877	420.8921813964846	1765.694213867188	191.5714721679688	902.089965820313	1768.361816406251	127.1011047363282	242.2039794921876	1368.869995117188	144.0980224609376	-125.1055908203126	1580.473754882813	550.5111083984377	246.7192993164064	1342.69775390625	147.5089263916016	454.4412841796877	1735.640014648438	124.9559783935547	93.17889404296878	1413.527954101563	135.7687377929688	174.0056762695313	1614.946899414063	341.2562866210939	105.7034378051758	1396.890380859375	107.1583099365235	294.4986877441407	1333.696411132813	130.8885345458985	26.07229804992677	1440.138427734375	134.4927062988282	53.014518737793	1507.278076171875	202.9886169433595	30.24716377258302	1434.592651367188	124.9559936523438	93.17887878417972	1413.527954101563	355.3757934570314	1005.485046386719	1828.909545898438	141.1959838867188	995.084350585938	1816.424194335938	212.6212615966798	1004.814819335938	1626.254394531251	438.1401977539065	722.9776611328127	1857.162231445313	382.0292358398439	523.8552246093752	1923.479736328126	379.8082885742189	278.9331359863282	1912.030395507813	350.3757934570314	81.06362915039065	1888.909545898438	304.1016540527345	45.79081344604494	1820.786254882813	314.0382690429689	54.73963546752933	2046.987060546876	70.45661163330081	750.1247558593752	1759.569213867188	91.77498626708987	470.0886230468752	1751.277221679688	67.48050689697268	383.6728515625001	1619.225830078126	80.69229888916018	241.7090454101564	1371.738647460938	125.8263473510743	289.9631347656251	1310.364135742188	133.2555236816407	81.89838409423831	1396.021118164063	325.2095336914064	1011.535095214844	1636.790893554688	0.8710387349128728	2.035825967788697	22.26930809020997	5.498421669006349	8.458068847656254	24.90281105041505	0	0	8.88824558258057	3.913993835449221	-14.52326679229737	9.184128761291507	-8.503228187561039	1.407205820083619	0.5154387950897219	-1.341229438781739	8.050981521606449	57.80960083007815	-0.2043553143739701	2.821126222610475	-8.169688224792484	0	0	-8.159728050231937	2.897598743438722	3.230700731277468	2.051045894622804	-2.897598743438722	-3.230700731277468	2.051045894622804	0.6006866693496706	-1.293843269348145	-93.67199707031253	-2.861802339553834	4.697986125946047	-21.63036346435548	nan	nan	nan	nan	nan	nan	nan	nan	nan	0	1.531161427497865	0	0	-1.103480577468873	0	0	0.007586210034787658	0	nan	nan	nan	nan	nan	nan	nan	nan	nan	0.01821389608085156	0.09364838153123858	-0.3534243404865266	0.1810033172369004	0.7841637730598454	-0.1053891032934189	nan	nan	nan	0.0748444274067879	1.983635187149049	0.4484945833683016	nan	nan	nan	nan	nan	nan	nan	nan	nan	0	5.46969795227051	-77.57199859619143	-37.81941986083986	6.230429649353031	218.9530487060548	nan	nan	nan	-144.0857238769532	58.32291412353518	-468.7356262207034	nan	nan	nan	
283	2.82	257.7477416992189	907.466186523438	1787.370483398438	251.2031555175782	902.6697387695317	1916.041381835938	386.3586730957034	913.4253540039067	1794.134155273438	251.5487670898439	1036.16552734375	1791.852661132813	325.840057373047	520.8322753906252	1926.849853515626	284.7163391113282	655.8400878906252	2314.682617187501	736.482116699219	537.9495849609377	1964.433471679688	322.0491333007814	910.4633789062505	1790.814086914063	306.1830444335939	84.43371582031253	1879.106079101563	207.7376403808595	44.52072906494142	2284.460205078126	713.065856933594	55.60581970214847	1975.084228515626	324.9275207519532	500.5736083984377	1924.633422851563	323.9236755371095	78.72670745849612	2033.906738281251	327.5292053222657	296.1098022460939	2021.568969726563	541.5905761718752	74.82417297363284	2028.756469726563	318.5612792968751	66.47959899902347	1816.554809570313	325.7111816406251	82.80908966064456	2106.357421875001	326.9130249023439	155.2701263427735	2102.244873046876	398.2668151855471	81.50823211669925	2104.640625000001	323.9236755371095	78.72673034667972	2033.906738281251	149.9214630126954	466.764343261719	1783.588378906251	138.3365631103516	467.5764160156252	2223.298583984376	587.4729003906252	423.2456970214846	1795.196777343751	193.4463806152345	904.4689941406255	1783.926757812501	127.4228973388672	250.9277801513673	1397.005859375	154.1289978027344	-118.6143035888672	1601.774169921876	549.3587036132815	263.8237915039064	1365.249755859375	148.9064178466797	457.027282714844	1766.148315429688	124.6834793090821	101.4336853027344	1440.034301757813	137.9204559326172	179.9453125000001	1642.222778320313	340.8993225097657	112.6975097656251	1421.505126953125	107.5083160400391	303.7416992187501	1362.600708007813	130.4085235595704	33.99767303466798	1465.845458984375	134.8208465576172	60.16815185546878	1533.241577148438	202.4804687500001	37.75228118896486	1459.669067382813	124.6834716796876	101.4336776733399	1440.034301757813	357.8145141601564	1007.565856933594	1843.421875000001	143.5618438720704	997.6384887695317	1832.154418945313	213.5862731933595	1006.659912109375	1641.402099609376	439.5508117675784	723.3149414062502	1868.421142578126	383.5489196777345	523.2378540039065	1932.131469726563	380.539764404297	278.6721191406251	1916.290039062501	350.3627319335939	81.30355072021487	1889.527343750001	304.0728759765626	45.99424362182619	1820.998535156251	314.0786437988282	54.0580978393555	2047.111816406251	72.359489440918	752.2280883789065	1781.017700195313	93.22105407714847	472.4037170410159	1782.084106445313	68.65790557861331	387.1719055175784	1650.547729492188	81.07556152343753	249.5111846923829	1400.494140625	126.1476135253907	299.1185302734376	1339.952392578125	132.8021087646485	88.50357818603518	1422.608764648438	326.2421264648439	1013.727355957032	1651.401733398438	0.984488964080811	2.004923820495606	21.32571029663087	5.485207557678224	8.644253730773929	25.1151695251465	0	0	9.520111083984379	3.881958007812502	-14.39771461486817	9.831836700439457	-8.322443008422855	1.520489215850831	2.390776634216309	-1.451314568519593	9.319474220275882	60.63850021362308	0.110207885503769	1.357236385345459	-7.964643478393558	0	0	-7.962376594543461	2.755932092666627	2.9130437374115	1.994635343551637	-2.755932092666627	-2.9130437374115	1.994635343551637	0.9489929676055913	-1.411066055297852	-93.22503662109378	-3.503327131271364	4.53331232070923	-20.94438362121583	nan	nan	nan	nan	nan	nan	nan	nan	nan	0	1.459385395050049	0	0	-1.059531927108765	0	0	0.04955752193927768	0	nan	nan	nan	nan	nan	nan	nan	nan	nan	0.01548172160983086	0.1215490400791169	-0.3064373433589936	0.1728107184171677	0.653205990791321	-0.07779710739851001	nan	nan	nan	0.05078291147947314	1.873627424240113	0.3745229542255403	nan	nan	nan	nan	nan	nan	nan	nan	nan	-5.305385782929628e-15	5.379359722137453	-69.34082031250003	-34.04305648803712	5.422978878021242	234.2876892089845	nan	nan	nan	-130.6397552490235	62.20054626464847	-433.7030029296877	nan	nan	nan	
284	2.83	259.5075073242189	909.8728027343755	1802.400878906251	253.6884765625001	905.2197875976567	1931.111816406251	388.1719665527346	915.4638061523442	1808.419921875001	253.7086181640626	1038.593872070313	1806.792114257813	327.1426086425782	520.426208496094	1934.880615234376	289.1835937500001	649.0025634765627	2325.588378906251	738.4495239257815	535.4458007812502	1969.898193359376	323.8360595703126	912.685913085938	1805.472290039063	306.0656738281251	84.96922302246097	1879.974853515626	210.5453643798829	38.48662567138673	2285.295898437501	713.5479736328127	53.59190368652347	1972.406127929688	326.1640625000001	500.2098388671877	1932.331542968751	324.1080627441407	78.22387695312503	2034.698730468751	328.9777832031251	295.6522216796876	2023.661132812501	541.736267089844	73.06267547607425	2029.044799804688	318.2012023925782	67.31958007812503	1817.289428710938	326.0770263671876	81.85865783691409	2107.168701171876	327.7003784179689	154.3347778320313	2103.489501953126	398.6197814941409	80.13814544677737	2105.283935546876	324.1079711914064	78.22387695312503	2034.698852539063	151.6180114746094	469.9277648925784	1814.132690429688	142.4626007080079	485.7122802734377	2253.300292968751	588.904724121094	426.7126770019534	1824.802124023438	195.1789855957032	907.059692382813	1799.329467773438	128.1995697021485	258.2306213378907	1426.24609375	162.4875488281251	-112.2884216308594	1626.394531250001	548.7275390625002	277.6936340332032	1390.234619140625	150.5595855712891	460.3599243164065	1796.601684570313	124.6771316528321	108.7619247436524	1469.305419921875	139.8290100097657	187.1855163574219	1671.393676757813	340.8392944335939	118.4754257202149	1449.328857421875	108.4340972900391	311.1844787597657	1391.969970703125	130.0914764404297	41.28773498535158	1495.083862304688	135.1420593261719	67.42890167236331	1562.446655273438	202.1455230712892	44.52557754516603	1488.425048828125	124.6771392822266	108.7619171142579	1469.305419921875	360.1787719726564	1009.734436035157	1857.777954101563	145.8499603271485	1000.420959472657	1847.751342773438	214.4399414062501	1008.736999511719	1656.435302734376	440.7907714843752	723.5962524414065	1879.061523437501	384.8952941894534	522.5351562500002	1939.797363281251	381.1566772460939	278.4359436035157	1919.858032226563	350.3138122558595	81.5619812011719	1890.011718750001	304.0164489746095	46.16484832763673	1821.197265625001	314.1167602539064	53.64618682861331	2047.182617187501	74.16938018798831	754.8455810546877	1802.277465820313	94.91102600097659	475.5318298339846	1812.748901367188	70.21530914306643	391.007995605469	1681.979858398438	81.9183044433594	256.0886230468751	1430.209228515625	127.0301589965821	306.0137329101564	1369.85009765625	132.6184844970704	94.57464599609378	1452.015869140625	327.1660156250001	1016.094909667969	1665.857910156251	1.063847661018372	1.951685786247254	20.2876262664795	5.416124343872072	8.609055519104007	25.0966033935547	0	0	10.11795234680176	3.794879198074343	-14.0557041168213	10.43368721008301	-8.074368476867679	1.58677363395691	4.285596847534181	-1.540970563888551	10.28334426879883	63.15013122558597	0.3873114883899691	0.06610513478517535	-7.453893661499027	0	0	-7.453874111175541	2.577936649322511	2.589545488357545	1.953836917877198	-2.577936649322511	-2.589545488357545	1.953836917877198	1.28185784816742	-1.554347157478333	-92.87131500244143	-4.009579658508303	4.286808967590334	-20.90932655334473	nan	nan	nan	nan	nan	nan	nan	nan	nan	0	1.339556932449341	0	0	-0.9450446963310246	0	0	0.07000122219324115	0	nan	nan	nan	nan	nan	nan	nan	nan	nan	0.01349165849387646	0.1386829614639283	-0.2603823840618135	0.1580219119787217	0.5328480601310732	-0.05933135747909549	nan	nan	nan	0.02670298889279367	1.767668247222901	0.3019739687442781	nan	nan	nan	nan	nan	nan	nan	nan	nan	-2.273736703610345e-15	4.812656879425051	-60.54231262207034	-29.34854698181154	4.375149250030519	239.8044738769532	nan	nan	nan	-113.5753250122071	63.13098907470706	-389.761413574219	nan	nan	nan	
285	2.84	261.1378784179689	912.448120117188	1817.282104492188	256.0630187988282	907.8963012695317	1946.028198242188	389.8542480468752	917.5975952148442	1822.537841796876	255.8100433349611	1041.191162109375	1821.623779296876	328.2614135742189	520.0215454101565	1942.114746093751	293.7734375000001	641.520935058594	2335.834228515626	740.2923583984377	532.8457031250002	1974.249267578126	325.4927673339845	915.0405273437505	1819.971801757813	305.8828430175782	85.45838928222659	1880.918334960938	214.8091430664064	33.0266571044922	2286.547851562501	714.3298339843752	52.11728668212893	1968.314941406251	327.2225036621095	499.847106933594	1939.273559570313	324.2734985351564	77.8530197143555	2035.561279296876	330.2958068847657	295.3036193847657	2025.580200195313	541.8557739257815	71.54125976562503	2029.334472656251	317.766326904297	68.05239105224612	1818.116455078126	326.4425354003907	81.11990356445315	2108.042968750001	328.4500427246095	153.6034240722657	2104.716064453126	398.9699401855471	79.01591491699222	2105.967285156251	324.273406982422	77.85307312011722	2035.561401367188	153.5179748535157	473.9055480957034	1844.439208984376	146.6213073730469	504.5760498046877	2282.419677734376	590.4342041015627	431.220397949219	1854.308227539063	196.782928466797	909.8557128906255	1814.592163085938	129.3978576660157	263.9354858398439	1456.470581054688	169.1439514160157	-106.4022827148438	1654.427612304688	548.6911621093752	288.0310668945314	1417.3623046875	152.4261474609376	464.4002685546877	1826.876098632813	124.9354095458985	114.9294815063477	1501.020629882813	141.4688262939454	195.2283935546876	1702.262329101563	341.0830383300782	122.8307266235352	1480.10986328125	109.8909301757813	316.694549560547	1421.748901367188	129.9502258300782	47.67446136474611	1527.444580078125	135.4614410400391	74.44081115722659	1594.525146484376	201.9994506835939	50.30818939208987	1520.474243164063	124.9353866577149	114.9294891357422	1501.020629882813	362.4707336425782	1011.995178222657	1871.998657226563	148.0720825195313	1003.417846679688	1863.244262695313	215.1855010986329	1011.059509277344	1671.394775390626	441.8740234375002	723.8696289062502	1889.160278320313	386.0579833984377	521.8204345703127	1946.622192382813	381.6580505371095	278.2520751953126	1922.852294921876	350.234588623047	81.83799743652347	1890.408447265626	303.9407653808595	46.32674789428712	1821.384643554688	314.1446533203126	53.40581512451175	2047.237426757813	75.88366699218753	757.9711914062502	1823.324462890626	96.80239868164068	479.4464416503909	1843.158081054688	72.10743713378909	395.1182250976565	1713.389770507813	83.1744079589844	261.2791137695314	1460.781860351563	128.4154815673829	310.6128234863282	1400.001953125	132.7165069580079	99.82925415039068	1483.956420898438	327.9827270507814	1018.64208984375	1680.194091796876	1.113357543945313	1.87534523010254	19.17874717712403	5.292735099792482	8.386848449707035	24.88209915161134	0	0	10.66652870178223	3.659479141235353	-13.52181816101075	10.97434234619141	-7.773188114166263	1.606095910072328	6.188386917114261	-1.59644913673401	10.9369707107544	65.31096649169925	0.6233587265014651	-1.033835411071778	-6.728719234466556	0	0	-6.727627277374271	2.368402719497682	2.257830858230592	1.93152153491974	-2.368402719497682	-2.257830858230592	1.93152153491974	1.585448861122132	-1.712370514869691	-92.580680847168	-4.374127864837648	3.969968795776369	-21.44944000244141	nan	nan	nan	nan	nan	nan	nan	nan	nan	0	1.180008292198182	0	0	-0.7831429243087773	0	0	0.07454115152359012	0	nan	nan	nan	nan	nan	nan	nan	nan	nan	0.01221362780779601	0.1454941034317017	-0.2172385752201081	0.1395049542188645	0.4248057305812838	-0.05010696500539782	nan	nan	nan	0.005266058258712293	1.661988139152528	0.2331688106060029	nan	nan	nan	nan	nan	nan	nan	nan	nan	0	3.911962270736696	-51.8528861999512	-24.35755348205568	3.214838743209841	236.2748260498048	nan	nan	nan	-94.94484710693362	61.15589904785159	-339.101531982422	nan	nan	nan	
